<svg width="24" height="24" viewBox="0 0 24 24" fill="none" xmlns="http://www.w3.org/2000/svg">
<g id="Icon / 24 / Arrow / Left" opacity="0.3">
<path id="Vector" d="M9.36424 11.4485L13.5989 7.22131C13.6685 7.15118 13.7512 7.09552 13.8424 7.05754C13.9336 7.01956 14.0314 7 14.1301 7C14.2289 7 14.3267 7.01956 14.4179 7.05754C14.509 7.09552 14.5918 7.15118 14.6613 7.22131C14.8007 7.36149 14.8789 7.55112 14.8789 7.74878C14.8789 7.94643 14.8007 8.13606 14.6613 8.27624L10.9579 12.0171L14.6613 15.7206C14.8007 15.8608 14.8789 16.0504 14.8789 16.2481C14.8789 16.4457 14.8007 16.6354 14.6613 16.7755C14.592 16.8462 14.5094 16.9025 14.4182 16.941C14.327 16.9795 14.2291 16.9996 14.1301 17C14.0311 16.9996 13.9332 16.9795 13.842 16.941C13.7509 16.9025 13.6682 16.8462 13.5989 16.7755L9.36424 12.5483C9.2883 12.4783 9.22769 12.3932 9.18623 12.2986C9.14478 12.204 9.12338 12.1018 9.12338 11.9984C9.12338 11.8951 9.14478 11.7929 9.18623 11.6983C9.22769 11.6036 9.2883 11.5186 9.36424 11.4485Z" fill="black"/>
</g>
</svg>
